<?xml version="1.0" encoding="UTF-8" standalone="no"?>
<!-- Created with Inkscape (http://www.inkscape.org/) -->

<svg
   width="722.8457"
   height="701.96637"
   id="svg2"
   version="1.1"
   inkscape:version="1.3.2 (091e20ef0f, 2023-11-25, custom)"
   sodipodi:docname="Ran.svg"
   inkscape:export-filename="/home/thockin/src/kubernetes/new.png"
   inkscape:export-xdpi="460.95001"
   inkscape:export-ydpi="460.95001"
   xml:space="preserve"
   xmlns:inkscape="http://www.inkscape.org/namespaces/inkscape"
   xmlns:sodipodi="http://sodipodi.sourceforge.net/DTD/sodipodi-0.dtd"
   xmlns="http://www.w3.org/2000/svg"
   xmlns:svg="http://www.w3.org/2000/svg"
   xmlns:rdf="http://www.w3.org/1999/02/22-rdf-syntax-ns#"
   xmlns:cc="http://creativecommons.org/ns#"
   xmlns:dc="http://purl.org/dc/elements/1.1/"><defs
     id="defs4" /><sodipodi:namedview
     id="base"
     pagecolor="#ffffff"
     bordercolor="#666666"
     borderopacity="1.0"
     inkscape:pageopacity="0.0"
     inkscape:pageshadow="2"
     inkscape:zoom="1.0060093"
     inkscape:cx="241.54847"
     inkscape:cy="152.08607"
     inkscape:document-units="px"
     inkscape:current-layer="g3052"
     showgrid="false"
     inkscape:window-width="2560"
     inkscape:window-height="1368"
     inkscape:window-x="1920"
     inkscape:window-y="0"
     inkscape:window-maximized="1"
     inkscape:snap-global="false"
     fit-margin-top="10"
     fit-margin-left="10"
     fit-margin-right="10"
     fit-margin-bottom="10"
     inkscape:showpageshadow="2"
     inkscape:pagecheckerboard="0"
     inkscape:deskcolor="#d1d1d1" /><metadata
     id="metadata7"><rdf:RDF><cc:Work
         rdf:about=""><dc:format>image/svg+xml</dc:format><dc:type
           rdf:resource="http://purl.org/dc/dcmitype/StillImage" /></cc:Work></rdf:RDF></metadata><g
     inkscape:label="Layer 1"
     inkscape:groupmode="layer"
     id="layer1"
     transform="translate(-6.3260942,-174.7524)"><g
       id="g3052"><path
         style="fill:#600FED;fill-opacity:1;stroke:#ffffff;stroke-width:0;stroke-miterlimit:4;stroke-opacity:1;stroke-dasharray:none"
         d="m 365.3125,184.8125 a 46.724621,46.342246 0 0 0 -17.90625,4.53125 l -244.34375,116.75 a 46.724621,46.342246 0 0 0 -25.28125,31.4375 L 17.5,599.78125 A 46.724621,46.342246 0 0 0 23.84375,635.3125 46.724621,46.342246 0 0 0 26.5,639 l 169.125,210.28125 a 46.724621,46.342246 0 0 0 36.53125,17.4375 L 503.375,866.65625 A 46.724621,46.342246 0 0 0 539.90625,849.25 L 708.96875,638.9375 A 46.724621,46.342246 0 0 0 718,599.71875 l -60.375,-262.25 a 46.724621,46.342246 0 0 0 -25.28125,-31.4375 l -244.375,-116.6875 A 46.724621,46.342246 0 0 0 365.3125,184.8125 z"
         id="path3055"
         inkscape:connector-curvature="0"
         inkscape:export-filename="new.png"
         inkscape:export-xdpi="250.55"
         inkscape:export-ydpi="250.55" /><path
         d="m 288.97713,727.5197 c -27.8905,0 -54.37368,-7.01101 -75.8758,-20.63215 -24.58117,-15.56579 -42.51809,-40.15549 -47.63561,-71.8159 -5.10899,-31.55805 2.41377,-69.76889 26.65377,-113.43842 16.92194,-30.36397 37.74173,-54.41632 50.88523,-79.74806 10.57621,-21.92006 15.69374,-39.83139 13.30556,-64.13962 -12.53793,-2.47347 -21.94564,-13.39085 -21.94564,-26.61112 0,-14.92611 12.13705,-27.12287 27.06316,-27.12287 15.0114,0 27.12287,12.19676 27.12287,27.12287 0,11.25855 -6.82336,20.81126 -16.54665,24.99057 0.85292,8.69979 0.85292,16.88783 0.0853,24.81999 7.84687,9.21154 16.97311,13.9026 28.31696,15.43786 12.53793,1.79113 27.8905,-0.59705 45.46066,-6.90866 4.34989,-8.27333 8.27333,-17.05841 11.68501,-26.52582 -7.84687,-4.60577 -13.04969,-13.13498 -13.04969,-22.85827 0,-14.58494 11.8556,-26.44054 26.44054,-26.44054 14.67023,0 26.52582,11.8556 26.52582,26.44054 0,13.9026 -10.6615,25.33174 -24.30823,26.44053 -3.41168,9.89388 -7.42041,19.10542 -11.85559,27.80521 8.69979,8.44391 23.45531,14.24377 40.59901,17.57016 18.76425,3.66756 39.83139,4.60577 57.48684,5.11752 5.97044,-5.45869 11.85559,-11.25855 17.57016,-17.31428 -0.42646,-1.87643 -0.68234,-3.92344 -0.68234,-5.97045 0,-13.98789 11.34385,-25.24644 25.24645,-25.24644 13.9879,0 25.24645,11.25855 25.24645,25.24644 0,13.90261 -11.25855,25.24645 -25.24645,25.24645 -5.88515,0 -11.34384,-2.04701 -15.60844,-5.45869 -5.54399,5.71457 -11.17326,11.08796 -16.88783,16.29078 -0.85292,41.87839 11.34384,74.71583 32.24039,101.66812 7.591,1.87642 15.35257,4.60577 23.37002,8.27333 4.94694,-4.86165 11.68501,-7.84687 19.10542,-7.84687 14.92611,0 27.03758,12.11147 27.03758,27.12287 0,14.92611 -12.11147,27.03758 -27.03758,27.03758 -14.92611,0 -27.12287,-12.11147 -27.12287,-27.03758 0,-1.79113 0.17059,-3.58227 0.51175,-5.28811 -6.65278,-2.98522 -12.96439,-5.20281 -19.10541,-6.82336 -13.22027,16.97311 -14.41436,30.27867 -10.7468,45.0342 3.92343,15.69373 14.75552,32.92273 25.50232,52.79577 5.3734,3.42874 10.23505,7.57394 14.24377,12.4697 4.69106,-3.54815 10.49092,-5.64633 16.80253,-5.64633 15.26728,0 27.71992,12.39293 27.71992,27.69432 0,15.29287 -12.45264,27.6858 -27.71992,27.6858 -15.26727,0 -27.71991,-12.39293 -27.71991,-27.6858 0,-2.89992 0.51175,-5.6975 1.27938,-8.31597 -9.55271,-14.35465 -27.8905,-22.3721 -50.15172,-22.76445 -22.68769,-0.40087 -48.70176,7.301 -70.53652,23.24209 -34.11682,20.39332 -73.43646,35.63501 -107.72386,36.08706 z m 39.91668,-21.32301 c 15.86432,-4.07696 31.64335,-10.62739 46.65475,-19.80481 l 0.0853,-12.58058 c -15.09669,11.28414 -31.64335,23.24208 -46.31358,30.83307 z m -52.71048,-2.74641 3.92343,-13.45908 c -9.55271,4.43519 -19.53188,7.97481 -30.10809,10.31181 9.12625,1.87642 17.65545,3.43727 26.18466,3.14727 z m 17.22899,-2.31994 c 7.76157,-1.76554 15.69374,-4.65694 22.34651,-7.70187 l 8.35863,-31.50688 c -7.84687,6.20073 -15.86433,12.05176 -24.30824,17.29722 z m -53.56341,-15.16492 c 15.77903,-2.58435 30.27868,-8.25627 44.0107,-15.96668 l -9.21154,-15.90696 c -11.94089,11.36943 -24.05236,22.81562 -34.79916,31.87364 z m 95.10063,-2.84876 c 9.21155,-5.67192 18.2525,-12.17117 27.20817,-19.00307 4.52048,-3.51403 9.04095,-7.11335 13.56143,-10.70415 l 0.25588,-37.61379 c -9.97917,9.04096 -20.12892,18.67896 -30.61985,28.06108 z m 56.63392,-7.54834 c 10.7468,-7.27542 22.34652,-12.86205 34.03153,-16.7343 l 0.59704,-24.10354 c -11.08796,7.42041 -22.60239,16.71724 -34.54327,26.33819 z m -164.00807,-0.15353 c 13.29703,-11.11355 26.09084,-23.28473 38.71406,-35.90795 l -11.8556,-20.3848 c -11.59971,19.276 -21.09272,38.65435 -26.85846,56.29275 z m 69.84565,-13.83437 c 11.68502,-7.9151 22.85827,-17.04135 33.86095,-26.76464 -1.70584,-5.20282 -10.40563,-18.67896 -13.73202,-23.96707 -10.40563,10.40563 -20.72597,21.06714 -31.21689,31.55806 z m 191.65123,-6.72101 c -6.99395,-12.45264 -13.47614,-24.6494 -16.97312,-37.69909 -9.55271,-0.17058 -19.44658,2.72935 -29.76692,7.93216 l -0.68234,29.51105 c 16.29078,-2.98522 32.41098,-3.2411 47.42238,0.25588 z m -292.47495,-6.82337 c 0.25587,-18.59366 3.17286,-35.22561 8.02598,-50.23701 l -13.85996,2.89993 c 0.29852,17.48487 2.40524,33.69036 5.83398,47.33708 z m 27.61756,-7.42041 c 5.50987,-11.59971 11.74472,-22.34651 18.53396,-32.1551 l -11.55707,-4.94693 c -4.04284,13.04968 -6.63572,25.84348 -6.97689,37.10203 z m 167.53917,-0.0853 c 12.19676,-9.29683 22.85827,-17.91133 34.88444,-24.90527 l 0.85292,-38.97847 c -12.02617,6.4822 -23.79648,15.18198 -35.48149,25.07586 z m -113.86488,-12.7938 c 10.14975,-10.32034 20.2995,-20.89656 30.70513,-31.21689 l -13.98789,-22.5171 c -10.7468,9.46741 -20.72597,19.70246 -29.85222,31.13159 z m 66.27192,-4.43519 c 11.08796,-9.97917 21.32301,-19.70246 31.0463,-28.23167 l -14.58494,-24.39351 c -10.83209,9.04095 -21.23772,18.67896 -31.38747,28.65812 z m 98.5976,-15.94961 c 8.78508,-3.66756 17.82604,-5.88515 27.03758,-6.14103 -0.17059,-12.02618 3.07051,-24.47882 11.00267,-37.18733 -13.56143,-0.51175 -25.58761,1.10879 -37.18733,5.28811 z M 252.55743,595.32556 c 8.44391,-10.66151 17.57016,-20.29951 27.29345,-29.25517 l -19.36129,-6.82337 c -9.12625,10.06447 -16.88783,19.44659 -22.60239,29.85222 z m 67.72188,-10.23505 c 10.23505,-9.89387 20.72597,-19.53187 31.81394,-28.57283 l -10.57622,-17.65546 c -11.94088,8.01746 -24.6494,17.05841 -34.54328,24.90528 z m 67.29543,-0.42646 c 11.94088,-9.638 24.30823,-18.25249 37.5285,-24.73469 l -13.90261,-24.30823 c -13.47614,7.33511 -26.09936,15.77903 -38.04025,24.99057 4.77636,8.01745 9.638,16.0349 14.41436,24.05235 z m -194.91791,-0.68233 18.84101,-3.92344 c 4.54606,-9.97917 9.94505,-19.276 15.96667,-28.06108 l -23.4809,1.62055 c -5.15164,9.12625 -9.11772,19.10542 -11.32678,30.36397 z m 101.09666,-29.93751 c 9.72329,-8.01745 19.87304,-15.43786 30.27867,-22.5171 l -20.72596,-6.99395 c -10.32034,7.07924 -20.89656,14.92611 -29.68164,22.43181 z m 146.10527,-0.34117 c 12.79381,-4.34989 27.71992,-6.14103 39.74609,-5.62927 -6.48219,-10.32034 -12.02617,-21.40831 -16.20548,-33.34919 -13.47615,3.58226 -26.09937,8.18803 -37.95496,13.64672 4.77635,8.44392 9.638,16.88783 14.41435,25.33174 z m -75.14229,-7.16453 c 12.11147,-9.12625 24.81998,-17.57016 38.46671,-24.99057 l -9.21154,-16.1202 c -13.22027,8.44392 -26.35524,16.54666 -39.06376,24.7347 3.2411,5.45869 6.56749,10.91738 9.80859,16.37607 z m -108.3209,-5.62928 c 9.21154,-9.04095 19.61717,-15.43786 28.14638,-22.68768 l -5.71457,-1.87643 c -7.93216,8.10275 -16.63195,17.39958 -22.43181,24.56411 z m -41.11076,-4.00872 c 8.24774,-0.51175 16.47842,-1.27938 24.73469,-1.70584 6.48219,-7.591 13.30556,-15.26728 19.19071,-21.4936 -6.22632,-0.59704 -14.84082,-0.76763 -21.83476,-1.0235 -7.90658,8.27333 -16.07756,16.54665 -22.09064,24.22294 z M 340.7494,520.26856 c 12.8791,-8.27333 25.92879,-16.37607 38.97847,-24.73469 l -20.47009,-9.21155 c -12.8791,9.63801 -27.46404,19.3613 -39.23434,27.03758 z m 76.67755,-5.88515 c 12.8791,-5.97045 26.61112,-11.00268 41.28135,-14.92611 -2.81463,-11.42913 -4.60577,-23.45531 -5.20281,-36.24912 -15.09669,12.36735 -30.61985,23.28473 -46.143,33.51977 3.32639,5.88516 6.73807,11.77031 10.06446,17.65546 z M 300.91802,506.963 c 14.58494,-9.89388 28.99929,-19.02013 41.62252,-28.14638 l -19.53188,-8.78508 c -10.32034,11.94089 -21.15243,22.94356 -31.72864,33.69036 z m -26.61112,-8.87037 c 9.89388,-9.97917 19.78776,-19.87305 29.34046,-30.36397 h -21.15242 c -9.12625,10.7468 -19.10542,20.29951 -28.91401,29.59634 6.90866,0.0853 13.81732,0.76763 20.72597,0.76763 z m -43.37953,-1.62055 c 10.03034,-9.638 20.18009,-18.93484 29.64751,-28.74342 H 246.4164 c -6.14103,9.638 -12.72557,19.10542 -19.32718,28.65813 1.27939,0 2.56729,0.0853 3.83815,0.0853 z m 164.8354,-11.25855 c 15.52316,-10.23505 30.87572,-20.98184 45.80183,-32.92273 -16.88782,-1.1088 -32.06981,-2.64405 -46.65475,-5.54398 -5.20281,10.49092 -12.8791,19.70246 -22.09064,28.14637 7.591,3.49697 15.26728,6.90866 22.94356,10.32034 z m -38.97846,-17.48487 c 9.638,-8.10275 17.31428,-16.46137 22.34651,-25.33174 -9.638,-3.2411 -18.50837,-7.67628 -25.6729,-13.81731 -6.14103,10.32034 -12.8791,19.78775 -19.87305,28.74342 z M 255.79853,451.77905 h 18.93483 c 5.3734,-6.73808 10.32034,-13.81731 14.49965,-21.4936 -7.42041,-2.21759 -14.32906,-5.71457 -20.55538,-10.6615 -3.49698,11.94088 -7.67629,22.5171 -12.8791,32.1551 z m 38.97846,0 h 22.68769 c 5.79985,-7.07924 11.34384,-14.41436 16.54665,-22.17594 -9.89387,2.38818 -19.276,3.58227 -28.23166,3.2411 -3.49698,6.73807 -7.33512,13.56144 -11.00268,18.93484 z"
         fill="#ffffff"
         fill-opacity="1"
         id="path1"
         style="stroke-width:0.85292" /></g></g></svg>
